<?xml version="1.0" encoding="UTF-8"?>
<svg width="24px" height="24px" viewBox="0 0 24 24" version="1.1" xmlns="http://www.w3.org/2000/svg" xmlns:xlink="http://www.w3.org/1999/xlink">
    <title>Credit Card Icon</title>
    <g stroke="none" stroke-width="1" fill="none" fill-rule="evenodd">
        <path d="M4,4 L20,4 C21.1045695,4 22,4.8954305 22,6 L22,18 C22,19.1045695 21.1045695,20 20,20 L4,20 C2.8954305,20 2,19.1045695 2,18 L2,6 C2,4.8954305 2.8954305,4 4,4 Z M20,8 L4,8 L4,6 L20,6 L20,8 Z M4,12 L8,12 L8,14 L4,14 L4,12 Z M12,12 L16,12 L16,14 L12,14 L12,12 Z" fill="#FFFFFF" fill-rule="nonzero"></path>
    </g>
</svg>